<?xml version="1.0" encoding="UTF-8" standalone="no"?>
<!DOCTYPE svg PUBLIC "-//W3C//DTD SVG 1.1//EN" "http://www.w3.org/Graphics/SVG/1.1/DTD/svg11.dtd">
<svg viewBox="0 0 1920 1200" version="1.1" xmlns="http://www.w3.org/2000/svg" xmlns:xlink="http://www.w3.org/1999/xlink" xml:space="preserve" xmlns:serif="http://www.serif.com/" style="fill-rule:evenodd;clip-rule:evenodd;stroke-linecap:round;stroke-linejoin:round;stroke-miterlimit:1.5;">
    <g id="UI">
        <g id="Notifications">
            <rect id="notification_area" x="-2" y="1122" width="1924" height="80" style="fill:#b7c7cc;stroke:#000;stroke-width:5px;"/>
            <text id="sensor.notification" x="24.65px" y="1177.51px" class="button_text_regular">Nothing to display</text>
        </g>
        <g id="alarm.status">
            <path d="M1836.5,1063.55c0,-21.222 -17.231,-38.452 -38.457,-38.452l-303.095,0c-21.226,0 -38.449,17.23 -38.449,38.452c0,21.223 17.223,38.452 38.449,38.452l303.095,0c21.226,0 38.457,-17.229 38.457,-38.452Z" style="fill:#6cd61d;stroke:#000;stroke-width:3px;"/>
            <text x="1553.48px" y="1077.57px" style="font-family:'ArialMT', 'Arial', sans-serif;font-size:43.429px;">Disarmed</text>
        </g>
        <g id="Alarm-Numbers" serif:id="Alarm Numbers">
            <g id="floorplan.code_1_button">
                <circle cx="1460.08" cy="881.574" r="38.572" class="alarm_number_button"/>
                <text x="1448.86px" y="898.627px" class="alarm_number">1</text>
            </g>
            <g id="floorplan.code_2_button">
                <circle cx="1553.29" cy="881.574" r="38.572" class="alarm_number_button"/>
                <text x="1539.67px" y="898.873px" class="alarm_number">2</text>
            </g>
            <g id="floorplan.code_3_button">
                <circle cx="1646.51" cy="881.574" r="38.572" class="alarm_number_button"/>
                <text x="1633.15px" y="898.627px" class="alarm_number">3</text>
            </g>
            <g id="floorplan.code_4_button">
                <circle cx="1739.72" cy="881.574" r="38.572" class="alarm_number_button"/>
                <text x="1725.93px" y="898.627px" class="alarm_number">4</text>
            </g>
            <g id="floorplan.code_5_button">
                <circle cx="1832.93" cy="881.574" r="38.572" class="alarm_number_button"/>
                <text x="1819.03px" y="898.627px" class="alarm_number">5</text>
            </g>
            <g id="floorplan.code_6_button">
                <circle cx="1460.08" cy="969.002" r="38.572" class="alarm_number_button"/>
                <text x="1445.91px" y="986.056px" class="alarm_number">6</text>
            </g>
            <g id="floorplan.code_7_button">
                <circle cx="1553.29" cy="969.002" r="38.572" class="alarm_number_button"/>
                <text x="1539.83px" y="986.302px" class="alarm_number">7</text>
            </g>
            <g id="floorplan.code_8_button">
                <circle cx="1646.51" cy="969.002" r="38.572" class="alarm_number_button"/>
                <text x="1632.74px" y="986.056px" class="alarm_number">8</text>
            </g>
            <g id="floorplan.code_9_button">
                <circle cx="1739.72" cy="969.002" r="38.572" class="alarm_number_button"/>
                <text x="1726.2px" y="986.056px" class="alarm_number">9</text>
            </g>
            <g id="floorplan.code_0_button">
                <circle cx="1832.93" cy="969.002" r="38.572" class="alarm_number_button"/>
                <text x="1819.17px" y="986.056px" class="alarm_number">0</text>
            </g>
        </g>
        <g>
            <path d="M1526.57,783l7.867,0l-1.554,15.558l12.687,-9.127l3.933,6.806l-14.24,6.431l14.24,6.432l-3.933,6.805l-12.687,-9.126l1.554,15.558l-7.867,0l1.554,-15.558l-12.687,9.126l-3.934,-6.805l14.241,-6.432l-14.241,-6.431l3.934,-6.806l12.687,9.127l-1.554,-15.558Z" />
            <path d="M1572.97,783l7.867,0l-1.554,15.558l12.687,-9.127l3.933,6.806l-14.24,6.431l14.24,6.432l-3.933,6.805l-12.687,-9.126l1.554,15.558l-7.867,0l1.554,-15.558l-12.687,9.126l-3.934,-6.805l14.241,-6.432l-14.241,-6.431l3.934,-6.806l12.687,9.127l-1.554,-15.558Z" />
            <path d="M1619.37,783l7.867,0l-1.554,15.558l12.687,-9.127l3.933,6.806l-14.24,6.431l14.24,6.432l-3.933,6.805l-12.687,-9.126l1.554,15.558l-7.867,0l1.554,-15.558l-12.687,9.126l-3.934,-6.805l14.241,-6.432l-14.241,-6.431l3.934,-6.806l12.687,9.127l-1.554,-15.558Z" />
            <path d="M1665.77,783l7.867,0l-1.554,15.558l12.687,-9.127l3.933,6.806l-14.24,6.431l14.24,6.432l-3.933,6.805l-12.687,-9.126l1.554,15.558l-7.867,0l1.554,-15.558l-12.687,9.126l-3.934,-6.805l14.241,-6.432l-14.241,-6.431l3.934,-6.806l12.687,9.127l-1.554,-15.558Z" />
            <path d="M1712.17,783l7.867,0l-1.554,15.558l12.687,-9.127l3.933,6.806l-14.24,6.431l14.24,6.432l-3.933,6.805l-12.687,-9.126l1.554,15.558l-7.867,0l1.554,-15.558l-12.687,9.126l-3.934,-6.805l14.241,-6.432l-14.241,-6.431l3.934,-6.806l12.687,9.127l-1.554,-15.558Z" />
            <path d="M1758.57,783l7.867,0l-1.554,15.558l12.687,-9.127l3.933,6.806l-14.24,6.431l14.24,6.432l-3.933,6.805l-12.687,-9.126l1.554,15.558l-7.867,0l1.554,-15.558l-12.687,9.126l-3.934,-6.805l14.241,-6.432l-14.241,-6.431l3.934,-6.806l12.687,9.127l-1.554,-15.558Z" />
        </g>
        <g id="input_boolean.motion_off">
            <circle cx="1764.5" cy="688.001" r="42.501" class="alarm_number_button"/>
            <path d="M1768.53,665.173c3.59,0 6.587,-3.03 6.587,-6.587c0,-3.688 -2.997,-6.587 -6.587,-6.587c-3.656,0 -6.587,2.899 -6.587,6.587c0,3.557 2.931,6.587 6.587,6.587m-11.889,45.713l3.293,-14.425l6.949,6.587l0,19.76l6.587,0l0,-24.701l-6.949,-6.586l2.009,-9.881c4.248,4.94 10.835,8.234 18.114,8.234l0,-6.587c-6.291,0 -11.527,-3.293 -14.195,-7.97l-3.293,-5.204c-1.318,-2.042 -3.294,-3.293 -5.566,-3.293c-1.021,0 -1.647,0.263 -2.668,0.263l-17.093,7.246l0,15.545l6.587,0l0,-11.264l5.895,-2.305l-5.269,26.743l-16.138,-3.294l-1.317,6.587l23.054,4.545Z" />
            <path d="M1795.59,708.188l-52.181,-53" style="fill:none;stroke:#fffefe;stroke-width:4.39px;stroke-linecap:butt;"/>
            <path d="M1793.59,710l-52.181,-52.765" style="fill:none;stroke:#000;stroke-width:4.49px;stroke-linecap:butt;"/>
        </g>
        <g id="input_boolean.night">
            <circle cx="1863.25" cy="689.5" r="42.501" class="alarm_number_button"/>
            <path d="M1880.99,667.043l-7.427,5.695l2.671,8.983l-7.721,-5.313l-7.72,5.313l2.671,-8.983l-7.427,-5.695l9.365,-0.264l3.111,-8.807l3.112,8.807l9.365,0.264m10.274,20.285l-4.814,3.67l1.732,5.812l-4.99,-3.434l-4.991,3.434l1.732,-5.812l-4.814,-3.67l6.047,-0.146l2.026,-5.725l2.025,5.725l6.047,0.146m-6.693,14.532c2.437,-0.235 5.05,3.229 3.494,5.43c-0.94,1.322 -1.938,2.554 -3.171,3.729c-11.478,11.537 -30.061,11.537 -41.509,0c-11.479,-11.449 -11.479,-30.061 0,-41.51c1.174,-1.174 2.407,-2.231 3.728,-3.17c2.201,-1.556 5.666,1.056 5.431,3.493c-0.793,8.396 2.025,17.115 8.484,23.544c6.429,6.458 15.118,9.276 23.543,8.484m-4.814,5.93c-8.308,-0.47 -16.528,-3.905 -22.898,-10.187c-6.37,-6.429 -9.776,-14.678 -10.245,-22.957c-8.249,9.218 -7.926,23.368 0.91,32.234c8.865,8.836 23.015,9.159 32.233,0.91Z" />
        </g>
        <g id="scene.focus">
            <path d="M1524.56,590.5c0,-23.457 -19.043,-42.5 -42.501,-42.5l-84.998,0c-23.457,0 -42.501,19.043 -42.501,42.5c0,23.456 19.044,42.499 42.501,42.499l84.998,0c23.458,0 42.501,-19.043 42.501,-42.499Z" class="alarm_number_button"/>
            <text x="1440px" y="607.328px" class="button_text_regular centered_text">Focus</text>
        </g>
        <g id="scene.relax">
            <path d="M1709.61,590.5c0,-23.457 -19.044,-42.5 -42.501,-42.5l-84.999,0c-23.457,0 -42.501,19.043 -42.501,42.5c0,23.456 19.044,42.499 42.501,42.499l84.999,0c23.457,0 42.501,-19.043 42.501,-42.499Z" class="alarm_number_button"/>
            <text x="1625px" y="608.547px" class="button_text_regular centered_text">Relax</text>
        </g>
        <g id="scene.aura">
            <path d="M1524.56,689.5c0,-23.457 -19.044,-42.5 -42.501,-42.5l-84.998,0c-23.458,0 -42.502,19.043 -42.502,42.5c0,23.456 19.044,42.499 42.502,42.499l84.998,0c23.457,0 42.501,-19.043 42.501,-42.499Z" class="alarm_number_button"/>
            <text x="1440px" y="706.328px" class="button_text_regular centered_text">Aura</text>
        </g>
        <g id="scene.late">
            <path d="M1709.61,689.5c0,-23.457 -19.044,-42.5 -42.501,-42.5l-84.999,0c-23.457,0 -42.501,19.043 -42.501,42.5c0,23.456 19.044,42.499 42.501,42.499l84.999,0c23.457,0 42.501,-19.043 42.501,-42.499Z" class="alarm_number_button"/>
            <text x="1625px" y="702.672px" class="button_text_regular centered_text">Late</text>
        </g>
        <g id="input_boolean.guests">
            <path d="M1709.56,488.5c0,-23.457 -19.046,-42.5 -42.507,-42.5l-269.996,0c-23.46,0 -42.498,19.043 -42.498,42.5c0,23.456 19.038,42.499 42.498,42.499l269.996,0c23.461,0 42.507,-19.043 42.507,-42.499Z" class="alarm_number_button"/>
            <circle cx="1397.06" cy="488.5" r="42.501" class="alarm_number_button"/>
            <path d="M1407.8,490.682c-0.837,0 -1.789,0 -2.8,0.144c3.349,2.425 5.687,5.628 5.687,9.958l0,7.216l17.318,0l0,-7.216c0,-6.725 -13.48,-10.102 -20.205,-10.102m-23.091,0c-6.725,0 -20.204,3.377 -20.204,10.102l0,7.216l40.409,0l0,-7.216c0,-6.725 -13.479,-10.102 -20.205,-10.102m0,-5.773c4.751,0 8.659,-3.908 8.659,-8.659c0,-4.751 -3.908,-8.659 -8.659,-8.659c-4.751,0 -8.659,3.908 -8.659,8.659c0,4.751 3.908,8.659 8.659,8.659m23.091,0c4.751,0 8.659,-3.908 8.659,-8.659c0,-4.751 -3.908,-8.659 -8.659,-8.659c-4.751,0 -8.659,3.908 -8.659,8.659c0,4.751 3.908,8.659 8.659,8.659Z" />
            <text x="1445px" y="505px" class="button_text_regular">No Guests</text>
        </g>
        <g id="device_tracker.victoria">
            <path d="M1709.56,388.77c0,-23.457 -19.046,-42.5 -42.506,-42.5l-269.996,0c-23.461,0 -42.499,19.043 -42.499,42.5c0,23.456 19.038,42.499 42.499,42.499l269.996,0c23.46,0 42.506,-19.043 42.506,-42.499Z" class="alarm_number_button"/>
            <circle cx="1397.06" cy="388.77" r="42.501" class="alarm_number_button"/>
            <text x="1363.12px" y="406.363px" class="button_text_medium">VM</text>
            <text id="sensor.victoria_location" x="1445px" y="405.767px" class="button_text_regular">Away</text>
        </g>
        <g id="device_tracker.chris">
            <path d="M1709.61,289.039c0,-23.457 -19.046,-42.5 -42.506,-42.5l-269.996,0c-23.461,0 -42.499,19.043 -42.499,42.5c0,23.456 19.038,42.499 42.499,42.499l269.996,0c23.46,0 42.506,-19.043 42.506,-42.499Z" class="alarm_number_button"/>
            <circle cx="1397.06" cy="288.969" r="42.501" style="fill:#6cd61d;stroke:#000;stroke-width:3px;"/>
            <text x="1366.46px" y="305.269px" class="button_text_medium">CS</text>
            <text id="sensor.chris_location" x="1445px" y="305.996px" class="button_text_regular">Home</text>
        </g>
        <g id="Outside-Temperatures" serif:id="Outside Temperatures">
            <circle cx="1813.87" cy="338.128" r="91.873" style="fill:url(#_Linear1);stroke:#000;stroke-width:3.5px;"/>
            <text id="sensor.outside_daily_high_temperature" x="1850px" y="304.588px" style="font-family:'Roboto-Regular', 'Roboto';font-size:45px; text-anchor:end; ">4.3</text>
            <text id="sensor.outside_daily_high_apparent_temperature" x="1850px" y="304.172px" style="font-family:'Roboto-Bold', 'Roboto';font-weight:700;font-size:22px;">0.5</text>
            <text id="sensor.outside_temperature" x="1850px" y="360px" style="font-family:'Roboto-Medium', 'Roboto';font-weight:500;font-size:65px; text-anchor:end; ">23.5</text>
            <text id="sensor.outside_apparent_temperature" x="1850px" y="344.464px" style="font-family:'Roboto-Bold', 'Roboto';font-weight:700;font-size:22px;">-2.6</text>
            <text id="sensor.outside_daily_low_temperature" x="1850px" y="400.652px" style="font-family:'Roboto-Regular', 'Roboto';font-size:45px; text-anchor:end; ">-3.0</text>
            <text id="sensor.outside_daily_low_apparent_temperature" x="1850px" y="384.756px" style="font-family:'Roboto-Bold', 'Roboto';font-weight:700;font-size:22px;">-3.0</text>
        </g>
        <g id="Inside-Temperatures" serif:id="Inside Temperatures">
            <circle id="sensor.thermostat" cx="1812.13" cy="532.128" r="91.873" class="thermostat_on"/>
<!-- 
			No smart thermostat currently so no way to change the temperature through home assistant
            <path id="thermostat_down" d="M1787.13,589.001l25,25l25,-25l-50,0Z" />
            <path id="thermostat_up" d="M1787.13,475.255l25,-25l25,25l-50,0Z" />
 -->
            <text id="sensor.thermostat_set" x="1810px" y="572.306px" style="font-family:'Roboto-Bold', 'Roboto';font-weight:700;font-size:27px; text-anchor: middle; "></text>
            <text id="sensor.lounge_temperature" x="1810px" y="545px" style="font-family:'Roboto-Medium', 'Roboto';font-weight:500;font-size:65px; text-anchor: middle; ">--</text>
        </g>
        <text id="sensor.outside_hourly_summary_line_1" x="1915px" y="183px" style="font-family:'Roboto-Regular', 'Roboto';font-size:27px;fill:#191919; text-anchor: end;">Loading</text>
        <text id="sensor.outside_hourly_summary_line_2" x="1915px" y="210px" style="font-family:'Roboto-Regular', 'Roboto';font-size:27px;fill:#191919; text-anchor: end;"></text>
        <text id="sensor.outside_hourly_summary_line_3" x="1915px" y="237px" style="font-family:'Roboto-Regular', 'Roboto';font-size:27px;fill:#191919; text-anchor: end;"></text>
        <rect id="sensor.outside_icon" x="1346" y="8.499" width="180" height="180" style="fill:none;"/>
        <text id="sensor.clock_date" x="1915px" y="155px" style="font-family:'Roboto-Regular', 'Roboto';font-size:40px; text-anchor: end;">Friday, 33rd January</text>
        <text id="sensor.clock_time" x="1915px" y="120px" style="font-family:'Roboto-Black', 'Roboto';font-size:165px; text-anchor: end;">17:13</text>
    </g>
    <g id="Ground-Floor" serif:id="Ground Floor">
        <g id="Floors">
            <rect id="binary_sensor.lounge_multisensor_sensor" x="25" y="63.861" width="412.931" height="491.36" style="fill:#f4f7f7;"/>
            <path id="sensor.kitchen_motion_sensor" d="M25.945,554.276l195.599,0l0,353.401l87.878,80.318l0,114.336l-283.477,0l0,-548.055Z" style="fill:#f6f6f6;"/>
            <rect id="Washroom" x="349.109" y="560.89" width="84.098" height="145.518" style="fill:#e4f0f0;"/>
            <path id="sensor.entrance_motion_sensor" d="M313.202,1096.66l0,-107.721l-86.933,-83.153l0,-344.897l111.501,0l0,156.857l94.492,0l0,378.914l-119.06,0Z" style="fill:#f6f6f6;"/>
        </g>
        <g id="Walls">
            <path d="M110.988,64.806l-85.988,0l0,1037.53l61.42,0m257.019,-1037.53l94.492,0l0,1037.53l-19.843,0" style="fill:none;stroke:#000;stroke-width:11.34px;stroke-linecap:butt;stroke-linejoin:miter;stroke-miterlimit:2;"/>
            <path d="M432.262,555.221l-99.217,0l10.394,0l0,10.394m0,89.767l0,56.696l88.823,0l-88.823,0l0,188.039m-312.769,-344.896l212.607,0l-22.678,0l0,83.153m0,88.823l0,181.425l87.878,82.208l0,111.501l9.449,0l-108.666,0" style="fill:none;stroke:#000;stroke-width:11.34px;stroke-linecap:butt;stroke-linejoin:miter;stroke-miterlimit:2;"/>
            <path id="Stairs" d="M349.109,889.723l84.098,0m-84.098,-22.678l84.098,0m-84.098,-22.678l84.098,0m-84.098,-21.733l84.098,0m-84.098,-22.678l84.098,0m-84.098,-22.679l84.098,0m-84.098,-21.733l84.098,0m-84.098,-22.678l84.098,0" style="fill:none;stroke:#000;stroke-width:0.94px;stroke-linecap:butt;stroke-linejoin:miter;stroke-miterlimit:2;"/>
        </g>
        <g id="Windows">
            <path d="M110.988,59.136l57.64,0l0,11.339l-57.64,0l0,-11.339Zm174.811,0l57.64,0l0,11.339l-57.64,0l0,-11.339Z" style="fill:#9fcfde;"/>
            <rect id="window.kitchen" x="86.42" y="1096.66" width="122.84" height="11.339" style="fill:#9fcfde;"/>
        </g>
        <g id="Doors">
            <g id="door.lounge">
                <path id="door_sweep" d="M321.706,472.067l11.339,0l0,88.823l-89.768,0l0,-10.394c0.945,-51.971 24.568,-77.484 78.429,-78.429Z" style="fill:#b7c7cc;"/>
                <path id="door" d="M327.375,560.89l0,-88.823" style="fill:none;stroke:#52aac7;stroke-width:11.34px;stroke-linecap:butt;stroke-linejoin:miter;stroke-miterlimit:2;"/>
            </g>
            <g id="door.back_main">
                <path id="door_sweep1" serif:id="door_sweep" d="M227.5,60.875l0,7.686l-58.6,0l0,-59.561l6.725,0c34.583,0 51.875,16.331 51.875,51.875Z" style="fill:#e3edbf;"/>
                <path id="door1" serif:id="door" d="M168.9,64.718l58.6,0" style="fill:none;stroke:#6cd61d;stroke-width:11.53px;stroke-linecap:butt;stroke-linejoin:miter;stroke-miterlimit:2;"/>
            </g>
            <g id="door.back_main1" serif:id="door.back_main">
                <path id="door_sweep2" serif:id="door_sweep" d="M227.214,61.026l0,7.559l58.585,0l0,-58.585l-7.56,0c-33.072,0 -50.081,16.064 -51.025,51.026Z" style="fill:#e3edbf;"/>
                <path id="door2" serif:id="door" d="M285.799,64.806l-58.585,0" style="fill:none;stroke:#6cd61d;stroke-width:11.34px;stroke-linecap:butt;stroke-linejoin:miter;stroke-miterlimit:2;"/>
            </g>
            <g id="door.front">
                <path id="door_sweep3" serif:id="door_sweep" d="M317.926,1095.72l0,12.284l100.162,0l0,-99.217l-12.284,0c-57.64,0 -86.933,27.402 -87.878,86.933Z" style="fill:#e3edbf;"/>
                <path id="door3" serif:id="door" d="M418.088,1102.33l-100.162,0" style="fill:none;stroke:#6cd61d;stroke-width:11.34px;stroke-linecap:butt;stroke-linejoin:miter;stroke-miterlimit:2;"/>
            </g>
            <g id="door.washroom">
                <path id="door_sweep4" serif:id="door_sweep" d="M337.77,655.382l11.339,0l0,-89.767l-89.768,0l0,11.339c0.945,51.026 25.513,77.483 78.429,78.428Z" style="fill:#b7c7cc;"/>
                <path id="door4" serif:id="door" d="M343.439,565.615l0,89.767" style="fill:none;stroke:#52aac7;stroke-width:11.34px;stroke-linecap:butt;stroke-linejoin:miter;stroke-miterlimit:2;"/>
            </g>
            <g id="door.washroom1" serif:id="door.washroom">
                <path id="door_sweep5" serif:id="door_sweep" d="M214.93,727.197l11.339,0l0,-88.823l-88.823,0l0,11.339c0,51.026 24.568,76.539 77.484,77.484Z" style="fill:#b7c7cc;"/>
                <path id="door5" serif:id="door" d="M220.599,638.374l0,88.823" style="fill:none;stroke:#52aac7;stroke-width:11.34px;stroke-linecap:butt;stroke-linejoin:miter;stroke-miterlimit:2;"/>
            </g>
        </g>
        <g id="Furniture">
            <g id="sofa">
                <path d="M33.504,97.878l0,223.947l269.303,0l-0.945,-101.107l-167.251,0l0,-122.84l-101.107,0Z" style="fill:#b7c7cc;stroke:#343b1a;stroke-width:0.94px;stroke-linecap:butt;stroke-linejoin:miter;stroke-miterlimit:2;"/>
                <path d="M134.611,109.217l-89.768,0l0,201.269l167.252,0l0,11.339l-178.591,0l0,-223.947l101.107,0l0,11.339Z" style="fill:#b7c7cc;stroke:#343b1a;stroke-width:0.94px;stroke-linecap:butt;stroke-linejoin:miter;stroke-miterlimit:2;"/>
            </g>
            <rect id="lounge_media_unit" x="365.172" y="70.475" width="67.09" height="134.179" style="fill:#b7c7cc;stroke:#343b1a;stroke-width:0.94px;stroke-linecap:butt;stroke-linejoin:miter;stroke-miterlimit:2;"/>
            <path id="remote.lounge" d="M382.181,86.539l39.687,108.666" class="screen"/>
            <rect id="dining_table" x="375.566" y="261.35" width="55.75" height="84.098" style="fill:#b7c7cc;stroke:#343b1a;stroke-width:0.94px;stroke-linecap:butt;stroke-linejoin:miter;stroke-miterlimit:2;"/>
            <rect id="lounge_cupboard" x="360.448" y="480.572" width="71.814" height="66.145" style="fill:#b7c7cc;stroke:#343b1a;stroke-width:0.94px;stroke-linecap:butt;stroke-linejoin:miter;stroke-miterlimit:2;"/>
            <rect id="coffee_table" x="163.904" y="138.51" width="55.75" height="55.75" style="fill:#b7c7cc;stroke:#343b1a;stroke-width:0.94px;stroke-linecap:butt;stroke-linejoin:miter;stroke-miterlimit:2;"/>
            <path id="kitchen_units" d="M157.289,634.594l-52.915,0l0,319.384l-72.76,0l0,-392.143l125.675,0l0,72.759Z" style="fill:#b7c7cc;stroke:#343b1a;stroke-width:0.94px;stroke-linecap:butt;stroke-linejoin:miter;stroke-miterlimit:2;"/>
            <rect id="fridge" x="159.179" y="561.835" width="55.75" height="72.759" style="fill:#b7c7cc;stroke:#343b1a;stroke-width:0.94px;stroke-linecap:butt;stroke-linejoin:miter;stroke-miterlimit:2;"/>
            <g id="Sink">
                <rect x="37.284" y="615.696" width="62.365" height="105.831" style="fill:#b7c7cc;stroke:#343b1a;stroke-width:0.94px;stroke-linecap:butt;stroke-linejoin:miter;stroke-miterlimit:2;"/>
                <path d="M41.064,621.365l53.86,0l0,44.412l-53.86,0l0,-44.412Zm6.614,49.136l46.301,0l0,12.284l-46.301,0l0,-12.284Z" style="fill:#f6f6f6;stroke:#343b1a;stroke-width:0.94px;stroke-linecap:butt;stroke-linejoin:miter;stroke-miterlimit:2;"/>
                <path id="DrainingBoard" d="M45.788,688.455l0,26.458m22.678,-26.458l0,26.458m21.734,-26.458l0,26.458m-10.394,-26.458l0,26.458m-22.679,-26.458l0,26.458" style="fill:none;stroke:#343b1a;stroke-width:0.94px;stroke-linecap:butt;stroke-linejoin:miter;stroke-miterlimit:2;"/>
            </g>
            <g id="Hob">
                <rect x="37.284" y="788.617" width="62.365" height="64.255" style="fill:#b7c7cc;stroke:#343b1a;stroke-width:0.94px;stroke-linecap:butt;stroke-linejoin:miter;stroke-miterlimit:2;"/>
                <g id="Hob-Rings" serif:id="Hob Rings">
                    <circle cx="51.458" cy="802.79" r="8.504" style="fill:#f6f6f6;stroke:#343b1a;stroke-width:0.94px;stroke-linecap:butt;stroke-linejoin:miter;stroke-miterlimit:2;"/>
                    <circle cx="51.458" cy="837.753" r="8.504" style="fill:#f6f6f6;stroke:#343b1a;stroke-width:0.94px;stroke-linecap:butt;stroke-linejoin:miter;stroke-miterlimit:2;"/>
                    <circle cx="86.42" cy="837.753" r="8.504" style="fill:#f6f6f6;stroke:#343b1a;stroke-width:0.94px;stroke-linecap:butt;stroke-linejoin:miter;stroke-miterlimit:2;"/>
                    <circle cx="86.42" cy="802.79" r="8.504" style="fill:#f6f6f6;stroke:#343b1a;stroke-width:0.94px;stroke-linecap:butt;stroke-linejoin:miter;stroke-miterlimit:2;"/>
                </g>
            </g>
            <path id="washroom_toilet" d="M413.363,675.226c0,-0.008 0,-0.016 0,-0.024c0,-10.368 -8.53,-18.898 -18.898,-18.898c-0.315,0 -0.63,0.007 -0.945,0.023l-10.394,0c-10.368,0 -18.899,8.531 -18.899,18.899l0,30.237l49.136,0l0,-30.237Z" style="fill:#b7c7cc;stroke:#343b1a;stroke-width:0.94px;stroke-linecap:butt;stroke-linejoin:miter;stroke-miterlimit:2;"/>
            <path id="washroom_sink" d="M426.592,576.009c-10.367,0 -18.898,8.531 -18.898,18.898l0,2.835c0,10.368 8.531,18.899 18.898,18.899l5.67,0l0,-40.632l-5.67,0Z" style="fill:#b7c7cc;stroke:#343b1a;stroke-width:0.94px;stroke-linecap:butt;stroke-linejoin:miter;stroke-miterlimit:2;"/>
            <g id="smoke_alarm.entrance">
                <path d="M310.367,766.883c0,-7.559 -6.615,-14.174 -14.174,-14.174l-28.348,0c-7.559,0 -13.229,6.615 -13.229,14.174l0,27.403c0,7.559 5.67,14.174 13.229,14.174l28.348,0c7.559,0 14.174,-6.615 14.174,-14.174l0,-27.403Z" style="fill:#b7c7cc;"/>
                <g id="binary_sensor.nest_protect_entrance">
                    <circle cx="282.019" cy="780.112" r="14.174" style="fill:#c5c5c5;"/>
                    <path d="M282.019,765.938l4.725,0l0,0.945l1.89,0l0,0.945l1.889,0l0,0.945l0.945,0l0,0.945l0.945,0l0,0.945l0.945,0l0,0.945l0.945,0.945l0,0.945l0.945,0l0,2.835l0.945,0l0,7.559l-0.945,0l0,2.835l-0.945,0l0,1.89l-0.945,0l0,0.944l-0.945,0l0,0.945l-0.945,0l0,0.945l-0.945,0l0,0.945l-1.889,0l0,0.945l-1.89,0l0,0.945l-3.78,0l0,0.945l-2.835,0l0,-0.945l-3.779,0l0,-0.945l-1.89,0l0,-0.945l-1.89,0l0,-0.945l-0.945,0l0,-0.945l-0.945,0l0,-0.945l-0.945,0l0,-1.889l-0.945,0l0,-0.945l-0.945,-0.945l0,-1.89l-0.945,0l0,-6.615l0.945,-0.944l0,-1.89l0.945,0l0,-1.89l0.945,0l0,-1.89l0.945,0l0,-0.945l0.945,0l0,-0.945l0.945,0l0.945,-0.945l0.945,0l0,-0.945l1.89,0l0,-0.945l5.669,0Zm-0.945,2.835l-1.89,0l0,0.945l-2.834,0l0,0.945l-0.945,0l-0.945,0.945l-0.945,0l0,0.945l-0.945,0l0,1.89l-0.945,0l0,0.945l-0.945,0.945l0,8.504l0.945,0l0,1.89l0.945,0l0,0.945l0.945,0l0,0.945l0.945,0l0,0.944l1.89,0l0,0.945l1.889,0l0,0.945l6.615,0l0,-0.945l1.89,0l0.945,-0.945l0.945,0l0,-0.944l0.944,0l0,-0.945l0.945,0l0,-0.945l0.945,0l0,-1.89l0.945,0l0,-3.78l0.945,-0.945l-0.945,0l0,-4.724l-0.945,0l0,-0.945l-0.945,-0.945l0,-0.945l-0.945,0l0,-0.945l-0.944,0l0,-0.945l-1.89,0l0,-0.945l-1.89,0l-0.945,-0.945l-2.835,0Z" style="fill:#00ff29;"/>
                </g>
            </g>
        </g>
        <g id="Lights">
            <g id="light.behind_sofa_left">
                <circle cx="56.182" cy="94.098" r="19.843" class="light-status" />
                <circle cx="56.182" cy="94.098" r="9.449" class="light-button"/>
                <g id="light.behind-sofa-left.bulb">
                    <path d="M59.962,88.429c-0.945,-1.89 -1.89,-1.89 -3.78,-1.89c-0.944,0 -2.834,0 -3.779,1.89l-0.945,3.779l1.89,2.835l0.945,0.945l0,3.78l0.945,0l0.944,0.945l1.89,-0.945l0.945,0l-0.945,-0.945l0.945,0l-0.945,-0.945l0.945,-0.945l0,-0.945l0.945,-0.945l1.89,-2.835l-1.89,-3.779Zm0.945,2.834l-1.89,3.78l-0.945,0.945l-0.945,0.945l-1.889,0l0,-0.945l-0.945,-1.89c-1.89,-0.945 -1.89,-1.89 -1.89,-2.835l0.945,-2.834l2.834,-0.945l3.78,0.945l0.945,2.834Z" style="fill:#ffd50c;fill-rule:nonzero;"/>
                    <path d="M59.962,91.263l-0.945,0l-1.89,-1.889l0,-0.945c1.89,0 2.835,1.889 2.835,2.834Z" style="fill:#ffd50c;fill-rule:nonzero;"/>
                </g>
            </g>
            <g id="light.behind_sofa_right">
                <circle cx="56.182" cy="319.935" r="19.843" class="light-status"/>
                <circle cx="56.182" cy="319.935" r="9.449" class="light-button"/>
                <path d="M59.962,314.265l-3.78,-1.89l-3.779,1.89l-0.945,3.78l1.89,2.835l0.945,1.89l0,3.779l0.945,0l0.944,0.945l1.89,-0.945l0.945,-0.945l-0.945,0l0.945,-0.945l-0.945,0l0.945,-0.945l-0.945,0l0.945,-0.944l0.945,-1.89l1.89,-2.835l-1.89,-3.78Zm0.945,3.78l-1.89,2.835l-0.945,0.945l-0.945,0.945l-1.889,0l0,-0.945l-0.945,-0.945l-1.89,-2.835l0.945,-2.835l2.834,-1.89l3.78,1.89l0.945,2.835Z" style="fill:#ffd50c;fill-rule:nonzero;"/>
                <path d="M59.962,317.1l-0.945,0l-1.89,-1.89l0,-0.945c1.89,0 2.835,1.89 2.835,2.835Z" style="fill:#ffd50c;fill-rule:nonzero;"/>
            </g>
            <g id="light.lounge_table">
                <circle cx="407.694" cy="524.038" r="19.843" class="light-status"/>
                <circle cx="407.694" cy="524.038" r="9.449" class="light-button"/>
                <path d="M411.474,517.424l-3.78,-0.945l-3.78,0.945l-0.945,3.779l1.89,3.78l0.945,0.945l0,3.78l0.945,0l0.945,0.945l1.89,-0.945l0.945,0l-0.945,-0.945l0.945,0l-0.945,-0.945l0.945,0l-0.945,-0.945l0.945,0l0,-0.945l0.945,-0.945l1.889,-3.78l-1.889,-3.779Zm0.944,3.779l-1.889,2.835l-0.945,1.89l-2.835,0l-0.945,-1.89l-1.89,-2.835l0.945,-2.834l2.835,-0.945l3.78,0.945l0.944,2.834Z" style="fill:#ffd50c;fill-rule:nonzero;"/>
                <path d="M411.474,520.258l-0.945,0l-1.89,-1.889l0,-0.945c1.89,0 2.835,1.89 2.835,2.834Z" style="fill:#ffd50c;fill-rule:nonzero;"/>
            </g>
            <g id="light.lounge_ceiling">
                <circle cx="204.535" cy="219.773" r="28.348" class="light-status"/>
                <circle cx="204.535" cy="219.773" r="14.174" class="light-button"/>
                <path d="M210.205,211.269l-5.67,-2.835c-1.889,0 -4.724,0.945 -5.669,2.835l-1.89,4.724l2.835,5.67l1.89,1.89l-0.945,0l0.945,0.945l-0.945,0.944l0.945,0l-0.945,0.945l0.945,0.945l-0.945,0l0.945,0.945l0.945,0l1.889,0.945l1.89,-0.945l0.945,0l0,-5.669l0.945,-0.945c1.89,-1.89 2.835,-2.835 2.835,-5.67c0.945,-1.89 0,-3.779 -0.945,-4.724Zm0,4.724l-1.89,4.725l-1.89,1.89l-3.779,0l-1.89,-2.835c-1.89,-0.945 -1.89,-1.89 -1.89,-3.78c-0.945,-0.945 0,-2.835 0.945,-3.779c0.945,-1.89 2.835,-1.89 4.724,-1.89c1.89,0 2.835,0 4.725,1.89l0.945,3.779Z" style="fill:#ffd50c;fill-rule:nonzero;"/>
                <path d="M209.26,215.048l-1.89,0c0,-0.945 -0.945,-2.834 -2.835,-2.834l0,-0.945c2.835,0 4.725,1.889 4.725,3.779Z" style="fill:#ffd50c;fill-rule:nonzero;"/>
            </g>
            <g id="light.kitchen_cooking_area">
                <circle cx="154.454" cy="761.214" r="28.348" class="light-status"/>
                <circle cx="154.454" cy="761.214" r="14.174" class="light-button"/>
                <path d="M159.179,752.709c-0.945,-1.889 -2.835,-2.834 -4.725,-2.834c-2.834,0 -4.724,0.945 -5.669,2.834c-1.89,0.945 -1.89,2.835 -1.89,4.725c0,1.89 0.945,3.78 2.835,4.725l0.945,1.89l0,0.944l0.945,0.945l-0.945,0l0.945,0.945l-0.945,0.945l0.945,0l-0.945,0.945l0.945,0.945l0.945,0l1.889,0.945l1.89,-0.945l0.945,-0.945l-0.945,-0.945l0.945,0l-0.945,-0.945l0.945,-0.945l-0.945,0l0.945,-0.945l0,-0.944l0.945,-1.89c1.89,-0.945 2.835,-2.835 2.835,-4.725c0,-1.89 0,-3.78 -1.89,-4.725Zm0.945,4.725c0,1.89 -0.945,2.835 -2.835,4.725l-0.945,0.945l-0.945,0.945l-2.834,0l0,-0.945l-1.89,-1.89c-1.89,-0.945 -1.89,-2.835 -1.89,-3.78c-0.945,-0.945 0,-2.835 0.945,-3.78c0.945,-1.889 2.835,-2.834 4.724,-2.834l4.725,2.834l0.945,3.78Z" style="fill:#ffd50c;fill-rule:nonzero;"/>
                <path d="M159.179,756.489l-1.89,0c0,-0.945 -0.945,-2.835 -2.835,-2.835l0,-0.945c2.835,0 4.725,1.89 4.725,3.78Z" style="fill:#ffd50c;fill-rule:nonzero;"/>
            </g>
            <g id="light.kitchen_storage_area">
                <circle cx="154.454" cy="961.537" r="28.348" class="light-status"/>
                <circle cx="154.454" cy="961.537" r="14.174" class="light-button"/>
                <path d="M159.179,953.033l-4.725,-1.89l-5.669,1.89c-1.89,1.89 -1.89,3.78 -1.89,5.67c0,1.89 0.945,2.834 2.835,4.724l0.945,1.89l0,0.945l0.945,0l-0.945,0.945l0.945,0.945l-0.945,0l0.945,0.945l-0.945,0.945l1.89,0l1.889,1.89l1.89,-1.89l0.945,0l-0.945,-0.945l0.945,-0.945l-0.945,0l0.945,-0.945l-0.945,-0.945l0.945,0l0,-0.945l0.945,-1.89c1.89,-0.945 2.835,-2.834 2.835,-4.724c0,-1.89 0,-3.78 -1.89,-5.67Zm0.945,5.67l-2.835,3.779l-0.945,1.89l-0.945,0.945l-2.834,0l0,-0.945l-1.89,-1.89l-1.89,-3.779c-0.945,-1.89 0,-3.78 0.945,-4.725l4.724,-1.89l4.725,1.89l0.945,4.725Z" style="fill:#ffd50c;fill-rule:nonzero;"/>
                <path d="M159.179,957.758l-1.89,0c0,-0.945 -0.945,-2.835 -2.835,-2.835l0,-1.89c2.835,0 4.725,2.835 4.725,4.725Z" style="fill:#ffd50c;fill-rule:nonzero;"/>
            </g>
            <g id="light.entryway_rear">
                <circle cx="282.492" cy="694.124" r="28.348" class="light-status"/>
                <circle cx="282.492" cy="694.124" r="14.174" class="light-button"/>
                <path d="M288.161,685.62c-0.945,-1.89 -2.835,-2.835 -5.669,-2.835c-1.89,0 -3.78,0.945 -4.725,2.835c-1.89,0.945 -1.89,2.835 -1.89,4.725c0,1.889 0.945,3.779 2.835,4.724l0.945,1.89l0,0.945l0.945,0.945l-0.945,0.945l0.945,0l-0.945,0.945l0.945,0.945l-0.945,0l0.945,0.945l1.89,0.944l2.834,-0.944l0.945,-0.945l-0.945,0l0.945,-0.945l-0.945,-0.945l0.945,0l-0.945,-0.945l0.945,-0.945l0,-0.945l0.945,-0.945c1.89,-1.89 2.835,-2.835 2.835,-5.669c0,-1.89 0,-3.78 -1.89,-4.725Zm0.945,4.725l-2.835,4.724l-0.945,1.89l-4.724,0l-0.945,-2.835l-2.835,-3.779l1.89,-3.78l3.78,-2.835c1.889,0 3.779,0.945 4.724,2.835l1.89,3.78Z" style="fill:#ffd50c;fill-rule:nonzero;"/>
                <path d="M287.216,689.4l-0.945,0c0,-0.945 -0.945,-2.835 -2.835,-2.835l0,-0.945c2.835,0 3.78,1.89 3.78,3.78Z" style="fill:#ffd50c;fill-rule:nonzero;"/>
            </g>
            <g id="light.entryway_front">
                <circle cx="282.492" cy="867.045" r="28.348" class="light-status"/>
                <circle cx="282.492" cy="867.045" r="14.174" class="light-button"/>
                <path d="M288.161,858.541c-0.945,-1.89 -2.835,-2.835 -5.669,-2.835c-1.89,0 -3.78,0.945 -4.725,2.835c-1.89,0.945 -1.89,2.835 -1.89,4.724l2.835,5.67l0.945,0.945l0,0.945l0.945,0.945l-0.945,0.945l0.945,0l-0.945,0.945l0.945,0.945l-0.945,0l0.945,0.944l1.89,0.945l2.834,-0.945l0.945,-0.944l-0.945,0l0.945,-0.945l-0.945,-0.945l0.945,0l-0.945,-0.945l0.945,-0.945l0,-0.945l0.945,-0.945c1.89,-1.89 2.835,-2.835 2.835,-5.67c0,-1.889 0,-3.779 -1.89,-4.724Zm0.945,4.724l-2.835,4.725l-0.945,1.89l-4.724,0l-0.945,-2.835l-2.835,-3.78l1.89,-3.779c0.945,-1.89 2.835,-1.89 3.78,-1.89c1.889,0 3.779,0 4.724,1.89l1.89,3.779Z" style="fill:#ffd50c;fill-rule:nonzero;"/>
                <path d="M287.216,862.321l-0.945,0c0,-0.945 -0.945,-2.835 -2.835,-2.835l0,-0.945c2.835,0 3.78,1.89 3.78,3.78Z" style="fill:#ffd50c;fill-rule:nonzero;"/>
            </g>
            <g id="light.washroom_ceiling">
                <circle cx="383.126" cy="621.365" r="28.348" class="light-status"/>
                <circle cx="383.126" cy="621.365" r="14.174" class="light-button"/>
                <path d="M388.795,612.861l-5.669,-2.835c-1.89,0 -4.725,0.945 -5.67,2.835l-1.89,5.669l2.835,4.725l1.89,1.89l-0.945,0l0.945,0.945l-0.945,0.945l0.945,0l-0.945,0.945l0.945,0.945l-0.945,0.944l1.89,0l1.89,1.89l1.89,-1.89l0.945,0l0,-4.724l0.945,-1.89c1.889,-1.89 2.834,-2.835 2.834,-4.725c0.945,-1.889 0,-3.779 -0.945,-5.669Zm0,4.724l-1.889,4.725l-1.89,1.89l-0.945,0.945l-2.835,0l0,-0.945l-1.89,-1.89c-1.89,-1.89 -1.89,-2.835 -1.89,-4.725c-0.945,-0.944 0,-2.834 0.945,-3.779l4.725,-1.89l4.724,1.89l0.945,3.779Z" style="fill:#ffd50c;fill-rule:nonzero;"/>
                <path d="M387.85,616.641l-1.889,0c0,-0.945 -0.945,-1.89 -2.835,-1.89l0,-1.89c2.835,0 4.724,2.835 4.724,3.78Z" style="fill:#ffd50c;fill-rule:nonzero;"/>
            </g>
            <g id="light.lounge_corner">
                <circle cx="411.474" cy="90.318" r="19.843" class="light-status"/>
                <circle cx="411.474" cy="90.318" r="9.449" class="light-button"/>
                <path d="M415.253,83.704l-3.779,-0.945l-3.78,0.945l-1.89,3.78l2.835,3.779l0,0.945l0.945,0l-0.945,0.945l0.945,0l-0.945,0.945l0.945,0l-0.945,0.945l0.945,0l-0.945,0.945l0.945,0l1.89,0.945l0.944,-0.945l0.945,0l0,-3.78l0.945,-0.945l1.89,-3.779l-0.945,-3.78Zm0,3.78l-1.89,2.834l-0.945,1.89l-2.834,0l-0.945,-1.89l-1.89,-2.834l0.945,-2.835l3.78,-0.945l2.834,0.945l0.945,2.835Z" style="fill:#ffd50c;fill-rule:nonzero;"/>
                <path d="M414.308,86.539l-0.945,0l-1.889,-1.89l0,-0.945c1.889,0 2.834,1.89 2.834,2.835Z" style="fill:#ffd50c;fill-rule:nonzero;"/>
            </g>
        </g>
    </g>
    <g id="First-Floor" serif:id="First Floor">
        <g id="Floors1" serif:id="Floors">
            <rect id="binary_sensor.guest_room" class="floor unmonitored" x="477.618" y="70.475" width="401.592" height="401.592"/>
            <rect id="bathroom" class="floor unmonitored" x="477.618" y="483.406" width="184.26" height="223.947"/>
            <rect id="spare_room" class="floor unmonitored" x="477.618" y="717.747" width="184.26" height="379.859" />
            <rect id="sensor.landing_motion_sensor" class="floor" x="672.272" y="483.406" width="206.938" height="618.925"/>
        </g>
        <g id="Walls1" serif:id="Walls">
            <path class="wall" d="M667.548,913.346l0,188.985l-50.081,0l128.509,0m-139.848,-1037.53l-134.179,0l0,1037.53l50.081,0m212.607,-1037.53l150.243,0l0,1037.53l-41.577,0m35.907,-624.594l-11.339,0" />
            <path class="wall" d="M477.618,477.737l301.431,0l-111.501,0l0,132.289" />
            <path id="Stairs1" serif:id="Stairs" d="M796.057,998.389l83.153,0m-83.153,-22.678l83.153,0m-83.153,-21.733l83.153,0m-83.153,-22.678l83.153,0m-83.153,-21.733l83.153,0m-83.153,-22.678l83.153,0m-83.153,-22.679l83.153,0m-83.153,-21.733l83.153,0" style="fill:none;stroke:#000;stroke-width:0.94px;stroke-linecap:butt;stroke-linejoin:miter;stroke-miterlimit:2;"/>
            <path id="Stairs2" serif:id="Stairs" d="M795.112,758.379l84.098,0m-84.098,-22.678l84.098,0m-84.098,-21.733l84.098,0m-84.098,-22.679l84.098,0m-84.098,-21.733l84.098,0m-84.098,-22.678l84.098,0m-84.098,-22.678l84.098,0m-84.098,-21.733l84.098,0" style="fill:none;stroke:#000;stroke-width:0.94px;stroke-linecap:butt;stroke-linejoin:miter;stroke-miterlimit:2;"/>
            <path class="wall" d="M667.548,699.794l0,12.284l-189.93,0l189.93,0l0,111.501" />
            <path class="wall" d="M773.379,606.246l17.954,0l0,390.254l-17.009,0l-0.945,-390.254Z"/>
        </g>
        <path id="Windows1" serif:id="Windows" d="M606.128,59.136l127.564,0l0,11.339l-127.564,0l0,-11.339Zm-84.098,1037.53l94.492,0l0,11.34l-94.492,0l0,-11.34Zm223.946,0l97.327,0l0,11.34l-97.327,0l0,-11.34Z" style="fill:#9fcfde;"/>
        <g id="Doors1" serif:id="Doors">
            <g id="door.guest_room">
                <path id="door_sweep6" serif:id="door_sweep" d="M856.532,393.639l11.339,0l0,89.767l-88.822,0l0,-11.339c0,-51.97 24.568,-77.483 77.483,-78.428Z" style="fill:#b7c7cc;"/>
                <path id="door6" serif:id="door" d="M862.202,483.406l0,-89.767" style="fill:none;stroke:#52aac7;stroke-width:11.34px;stroke-linecap:butt;stroke-linejoin:miter;stroke-miterlimit:2;"/>
            </g>
            <g id="door.bathroom">
                <path id="door_sweep7" serif:id="door_sweep" d="M661.878,610.026l10.394,0l0,89.768l-88.822,0l0,-11.339c0,-51.026 24.568,-77.484 78.428,-78.429Z" style="fill:#b7c7cc;"/>
                <path id="door7" serif:id="door" d="M667.548,699.794l0,-89.768" style="fill:none;stroke:#52aac7;stroke-width:11.34px;stroke-linecap:butt;stroke-linejoin:miter;stroke-miterlimit:2;"/>
            </g>
            <g id="door.spare_room">
                <path id="door_sweep8" serif:id="door_sweep" d="M661.878,913.346l10.394,0l0,-89.767l-88.822,0l0,11.339c0,51.971 24.568,77.483 78.428,78.428Z" style="fill:#b7c7cc;"/>
                <path id="door8" serif:id="door" d="M667.548,823.579l0,89.767" style="fill:none;stroke:#52aac7;stroke-width:11.34px;stroke-linecap:butt;stroke-linejoin:miter;stroke-miterlimit:2;"/>
            </g>
        </g>
        <g id="Furniture1" serif:id="Furniture">
            <g id="bathroom_toilet">
                <path d="M507.856,691.289c10.367,0 18.898,-8.53 18.898,-18.898l0,-11.339c0,-10.368 -8.531,-18.899 -18.898,-18.899l-30.238,0l0,49.136l30.238,0Z" style="fill:#b7c7cc;"/>
                <path d="M507.856,642.153l3.779,0l0,0.945l2.835,0l0,0.945l1.89,0l0,0.945l1.89,0l0,0.945l0.945,0l0,0.945l0.945,0l0,0.945l0.945,0l0,0.945l0.945,0l0,0.945l0.944,0l0,0.945l0.945,0l0,1.89l0.945,0l0,1.889l0.945,0l0,3.78l0.945,0l0,17.009l-0.945,0l0,3.779l-0.945,0l0,1.89l-0.945,0l0,1.89l-0.945,0l0,0.945l-0.944,0l0,0.945l-0.945,0.945l-0.945,0l0,0.945l-0.945,0l0,0.945l-0.945,0l0,0.945l-0.945,0l-0.945,0.945l-1.89,0l0,0.945l-2.835,0l0,0.944l-34.017,0l0,-49.136l30.238,0Zm-29.293,0.945l0,47.247l32.127,0l0,-0.945l2.835,0l0.945,-0.945l1.89,0l0,-0.945l0.945,0l0,-0.945l1.89,0l0,-0.945l0.945,0l0,-0.945l0.945,0l0,-0.945l0.945,0l0,-1.89l0.944,0l0,-0.945l0.945,-0.945l0,-1.889l0.945,0l0,-4.725l0.945,0l0,-13.229l-0.945,0l0,-4.725l-0.945,0l0,-1.889l-0.945,-0.945l0,-0.945l-0.944,0l0,-0.945l-0.945,-0.945l0,-0.945l-0.945,0l0,-0.945l-0.945,0l0,-0.945l-1.89,0l0,-0.945l-0.945,0l0,-0.945l-1.89,0l-0.945,-0.945l-2.835,0l0,-0.945l-32.127,0Z" style="fill:#343b1a;"/>
            </g>
            <g id="Bath">
                <rect x="477.618" y="483.406" width="184.26" height="78.429" style="fill:#b7c7cc;"/>
                <path d="M661.878,561.835l-184.26,0l0,-78.429l184.26,0l0,78.429Zm-183.315,-77.484l0,76.539l181.425,0l0,-76.539l-181.425,0Z" style="fill:#343a18;"/>
                <path d="M656.209,508.919c0,-7.559 -5.67,-13.229 -13.229,-13.229l-145.518,0c-7.56,0 -14.174,5.67 -14.174,13.229l0,27.403c0,7.56 6.614,14.174 14.174,14.174l145.518,0c7.559,0 13.229,-6.614 13.229,-14.174l0,-27.403Z" style="fill:#f6f6f6;"/>
                <path d="M642.98,495.69l3.779,0l0,0.945l2.835,0l0,0.945l0.945,0l0,0.945l0.945,0l0.945,0.945l0,0.945l0.945,0l0,0.945l0.945,0l0,0.945l0.945,0.945l0,1.89l0.945,0l0,34.962l-0.945,0.945l0,1.89l-0.945,0l0,1.889l-0.945,0l0,0.945l-0.945,0l0,0.945l-0.945,0l0,0.945l-0.945,0l-0.945,0.945l-0.945,0l0,0.945l-2.835,0l0,0.945l-151.187,0l-0.945,-0.945l-1.89,0l0,-0.945l-1.89,0l0,-0.945l-1.89,0l0,-0.945l-0.945,0l0,-0.945l-0.945,-0.945l0,-0.944l-0.944,0l0,-1.89l-0.945,0l0,-2.835l-0.945,0l0,-33.072l0.945,0l0,-2.835l0.945,0l0,-1.89l0.944,0l0,-0.945l0.945,0l0,-0.945l0.945,0l0,-0.945l0.945,0l0,-0.945l1.89,0l0,-0.945l1.89,0l0,-0.945l150.243,0Zm-145.518,0.945l-3.78,0l0,0.945l-1.89,0l-0.945,0.945l-0.945,0l0,0.945l-0.945,0l0,0.945l-0.945,0l0,0.945l-0.945,0l0,0.945l-0.945,0l0,1.89l-0.944,0l0,2.835l-0.945,0.944l0,30.238l0.945,0l0,3.78l0.944,0l0,1.89l0.945,0l0,0.944l0.945,0l0,0.945l0.945,0l0,0.945l0.945,0l0.945,0.945l0.945,0l0,0.945l3.78,0l0,0.945l149.298,0l0,-0.945l2.834,0l0,-0.945l1.89,0l0,-0.945l0.945,0l0,-0.945l0.945,0l0,-0.945l0.945,0l0,-0.944l0.945,0l0,-1.89l0.945,0l0,-1.89l0.945,0l0,-34.017l-0.945,0l0,-2.835l-0.945,0l0,-0.945l-0.945,0l0,-1.89l-0.945,0l0,-0.945l-0.945,0l-0.945,-0.945l-0.945,0l0,-0.945l-1.89,0l0,-0.945l-149.297,0Z" style="fill:#343a19;"/>
            </g>
            <g id="washroom_sink1" serif:id="washroom_sink">
                <path d="M482.343,625.145c0.314,0.016 0.63,0.024 0.945,0.024c10.367,0 18.898,-8.531 18.898,-18.899c0,-0.008 0,-0.016 0,-0.024l0,-3.779c0,-0.008 0,-0.016 0,-0.024c0,-10.368 -8.531,-18.898 -18.898,-18.898c-0.315,0 -0.631,0.007 -0.945,0.023l-4.725,0l0,41.577l4.725,0Z" style="fill:#b7c7cc;"/>
                <path d="M483.288,583.568l3.779,0l0,0.945l2.835,0l0,0.945l1.89,0l0,0.945l1.89,0l0,0.945l0.945,0l0,0.945l0.945,0l0,0.945l0.945,0l0,0.945l0.945,0l0,0.945l0.944,0l0,0.945l0.945,0.944l0,0.945l0.945,0l0,2.835l0.945,0l0,4.725l0.945,0l0,5.669l-0.945,0l0,4.725l-0.945,0l0,1.89l-0.945,0.945l0,0.945l-0.945,0l0,1.889l-0.944,0l0,0.945l-0.945,0l0,0.945l-0.945,0l0,0.945l-0.945,0l0,0.945l-1.89,0l0,0.945l-0.945,0l-0.945,0.945l-1.89,0l0,0.945l-3.779,0l0,0.945l-7.56,0l0,-41.577l5.67,0Zm-4.725,0.945l0,39.687l4.725,0l0,-0.945l4.724,0l0.945,-0.945l1.89,0l0,-0.945l1.89,0l0,-0.945l0.945,0l0,-0.945l0.945,0l0,-0.945l0.945,0l0,-0.945l0.945,0l0,-0.944l0.945,0l0,-0.945l0.944,0l0,-1.89l0.945,0l0,-2.835l0.945,0l0,-13.229l-0.945,-0.945l0,-1.89l-0.945,0l0,-1.89l-0.944,0l0,-0.944l-0.945,0l0,-1.89l-0.945,0l0,-0.945l-0.945,0l-0.945,-0.945l-0.945,0l0,-0.945l-0.945,0l-0.945,-0.945l-1.89,0l0,-0.945l-2.835,0l0,-0.945l-7.559,0Z" style="fill:#343b1a;"/>
            </g>
            <rect x="659.043" y="114.886" width="218.277" height="100.162" style="fill:#b7c7cc;stroke:#343a18;stroke-width:0.94px;stroke-linecap:butt;stroke-linejoin:miter;stroke-miterlimit:2;"/>
            <rect id="guest_room_folding_bed" x="659.043" y="270.799" width="218.277" height="100.162" style="fill:#b7c7cc;stroke:#343a18;stroke-width:0.94px;stroke-linecap:butt;stroke-linejoin:miter;stroke-miterlimit:2;"/>
            <rect id="guest_room_bedside_table" x="831.019" y="220.718" width="45.356" height="44.411" style="fill:#b7c7cc;stroke:#343a18;stroke-width:0.94px;stroke-linecap:butt;stroke-linejoin:miter;stroke-miterlimit:2;"/>
            <g id="smoke_alarm.landing">
                <path d="M750.701,770.663c0,-7.559 -6.615,-14.174 -14.174,-14.174l-27.403,0c-7.559,0 -14.174,6.615 -14.174,14.174l0,27.403c0,7.559 6.615,14.174 14.174,14.174l27.403,0c7.559,0 14.174,-6.615 14.174,-14.174l0,-27.403Z" style="fill:#b7c7cc;"/>
                <g id="binary_sensor.nest_protect_landing">
                    <circle cx="722.353" cy="783.892" r="14.174" style="fill:#c5c5c5;"/>
                    <path d="M722.353,769.718l4.725,0l0,0.945l1.89,0l0.945,0.945l0.944,0l0,0.945l0.945,0l0,0.945l0.945,0l0,0.945l0.945,0l0,0.945l0.945,0l0,0.945l0.945,0l0,1.889l0.945,0l0,3.78l0.945,0.945l0,2.835l-0.945,0l0,3.779l-0.945,0l0,1.89l-0.945,0l0,0.945l-0.945,0.945l0,0.945l-0.945,0l0,0.945l-0.945,0l-0.945,0.945l-0.944,0l0,0.945l-1.89,0l0,0.945l-3.78,0l0,0.945l-2.835,0l-0.945,-0.945l-3.779,0l0,-0.945l-1.89,0l0,-0.945l-0.945,0l0,-0.945l-0.945,0l0,-0.945l-0.945,0l0,-0.945l-0.945,0l0,-0.945l-0.945,0l0,-0.945l-0.945,-0.945l0,-1.889l-0.945,0l0,-9.45l0.945,0l0,-1.89l0.945,0l0,-1.889l0.945,0l0,-0.945l0.945,0l0,-0.945l0.945,0l0,-0.945l0.945,0l0,-0.945l1.89,0l0,-0.945l1.89,0l0,-0.945l4.724,0Zm0,2.835l-2.835,0l0,0.945l-1.889,0l0,0.945l-1.89,0l0,0.945l-0.945,0l0,0.945l-0.945,0l0,0.944l-0.945,0l0,1.89l-0.945,0l0,1.89l-0.945,0l0,5.67l0.945,0l0,2.834l0.945,0l0,0.945l0.945,0l0,0.945l0.945,0l0,0.945l0.945,0l0,0.945l0.945,0l0,0.945l1.889,0l0.945,0.945l6.615,0l0,-0.945l1.89,0l0,-0.945l0.945,0l0,-0.945l1.889,0l0,-1.89l0.945,0l0,-0.945l0.945,0l0,-1.889l0.945,0l0,-6.615l-0.945,-0.945l0,-1.89l-0.945,0l0,-0.945l-0.945,0l0,-0.944l-0.944,0l0,-0.945l-0.945,0l0,-0.945l-0.945,0l0,-0.945l-2.835,0l0,-0.945l-2.835,0Z" style="fill:#00ff29;"/>
                </g>
            </g>
        </g>
        <g id="Lights1" serif:id="Lights">
            <g id="light.guest_room_ceiling">
                <circle cx="634.475" cy="243.396" r="28.348" class="light-status"/>
                <circle cx="634.475" cy="243.396" r="14.174" class="light-button"/>
                <path d="M639.2,234.892c-0.945,-1.89 -2.835,-2.835 -4.725,-2.835c-2.834,0 -4.724,0.945 -5.669,2.835c-1.89,0.945 -1.89,2.834 -1.89,4.724c0,1.89 0.945,3.78 2.835,4.725l0.945,1.89l0,0.945l0.945,0.945l-0.945,0l0.945,0.945l-0.945,0.944l0.945,0l-0.945,0.945l0.945,0.945l0.945,0l1.889,0.945l1.89,-0.945l0.945,-0.945l-0.945,-0.945l0.945,0l-0.945,-0.944l0.945,-0.945l-0.945,0l0.945,-0.945l0,-0.945l0.945,-1.89c1.89,-0.945 2.835,-2.835 2.835,-4.725c0,-1.89 0,-3.779 -1.89,-4.724Zm0.945,4.724c0,1.89 -0.945,2.835 -2.835,3.78l-0.945,1.89l-0.945,0.945l-2.834,0l0,-0.945l-1.89,-1.89l-2.835,-3.78l1.89,-4.724l4.724,-1.89l3.78,1.89l1.89,4.724Z" style="fill:#ffd50c;fill-rule:nonzero;"/>
                <path d="M638.255,238.671l-0.945,0c0,-0.945 -0.945,-2.834 -2.835,-2.834l0,-0.945c2.835,0 3.78,1.89 3.78,3.779Z" style="fill:#ffd50c;fill-rule:nonzero;"/>
            </g>
            <g id="light.bathroom_ceiling">
                <circle cx="550.377" cy="609.081" r="28.348" class="light-status"/>
                <circle cx="550.377" cy="609.081" r="14.174" class="light-button"/>
                <path d="M556.047,600.577l-5.67,-2.835l-5.669,2.835l-1.89,4.724l2.835,5.67l1.889,0.945l0,5.669l0.945,0l1.89,1.89l1.89,-1.89l0.945,0l0,-5.669l1.89,-0.945l2.835,-5.67l-1.89,-4.724Zm0,4.724l-1.89,4.725l-1.89,1.89l-0.945,0.945l-1.89,0l-0.945,-0.945l-1.889,-1.89l-1.89,-4.725l0.945,-3.779c0.945,-1.89 2.834,-1.89 4.724,-1.89c1.89,0 3.78,0 4.725,1.89l0.945,3.779Z" style="fill:#ffd50c;fill-rule:nonzero;"/>
                <path d="M555.102,604.357l-1.89,0l-1.89,-2.835l0,-0.945c1.89,0 3.78,2.835 3.78,3.78Z" style="fill:#ffd50c;fill-rule:nonzero;"/>
            </g>
            <g id="light.spare_room_ceiling">
                <circle cx="556.047" cy="890.668" r="28.348" class="light-status"/>
                <circle cx="556.047" cy="890.668" r="14.174" class="light-button"/>
                <path d="M561.716,882.164l-5.669,-2.835c-1.89,0 -4.725,0.945 -5.67,2.835l-1.89,4.725l2.835,4.724l1.89,1.89l-0.945,0.945l0.945,0.945l-0.945,0l0.945,0.945l-0.945,0.945l0.945,0l-0.945,0.945l0.945,0.945l0.945,0l1.89,0.944l1.89,-0.944l0.945,0l0,-5.67l1.889,-1.89l1.89,-4.724c0.945,-1.89 0,-3.78 -0.945,-4.725Zm0,4.725l-1.89,3.779l-1.889,1.89l-0.945,0.945l-1.89,0l-0.945,-0.945l-1.89,-1.89c-1.89,-0.945 -1.89,-2.835 -1.89,-3.779l0.945,-3.78c0.945,-1.89 2.835,-2.835 4.725,-2.835c1.89,0 3.779,0.945 4.724,2.835l0.945,3.78Z" style="fill:#ffd50c;fill-rule:nonzero;"/>
                <path d="M560.771,885.944l-1.889,0l-1.89,-2.835l0,-0.945c1.89,0 3.779,1.89 3.779,3.78Z" style="fill:#ffd50c;fill-rule:nonzero;"/>
            </g>
            <g id="light.landing_rear">
                <circle cx="723.298" cy="627.98" r="28.348" class="light-status"/>
                <circle cx="723.298" cy="627.98" r="14.174" class="light-button"/>
                <path d="M728.968,619.475l-5.67,-2.834c-2.835,0 -4.725,0.944 -5.669,2.834c-1.89,1.89 -1.89,3.78 -1.89,5.67c0,1.89 0.945,2.835 2.834,4.724l0.945,0.945l0,0.945l0.945,0.945l-0.945,0.945l0.945,0l-0.945,0.945l0.945,0.945l-0.945,0.945l1.89,0l1.89,1.89l1.89,-1.89l0.945,0l-0.945,-0.945l0.945,-0.945l-0.945,-0.945l0.945,0l-0.945,-0.945l0.945,-0.945l0.945,-1.89c1.89,-1.889 2.835,-2.834 2.835,-4.724l-0.945,-5.67Zm0,4.725c0,1.89 -0.945,2.835 -2.835,4.725l-0.945,1.889l-0.945,0.945l-2.835,0l0,-0.945l-1.89,-1.889c-1.889,-1.89 -1.889,-2.835 -1.889,-4.725c-0.945,-0.945 0,-2.835 0.944,-3.78l4.725,-1.89l4.725,1.89l0.945,3.78Z" style="fill:#ffd50c;fill-rule:nonzero;"/>
                <path d="M728.023,623.255l-1.89,0c0,-0.945 -0.945,-1.89 -2.835,-1.89l0,-1.89c2.835,0 4.725,2.835 4.725,3.78Z" style="fill:#ffd50c;fill-rule:nonzero;"/>
            </g>
            <g id="light.landing_front">
                <circle cx="723.298" cy="968.152" r="28.348" class="light-status"/>
                <circle cx="723.298" cy="968.152" r="14.174" class="light-button"/>
                <path d="M728.968,959.648l-5.67,-1.89l-5.669,1.89c-0.945,1.889 -1.89,3.779 -0.945,5.669l1.889,4.725l1.89,1.89l0,4.724l0.945,0l1.89,1.89l1.89,-1.89l1.89,0l-0.945,-0.945l0.945,-0.945l-0.945,0l0.945,-0.945l-0.945,-0.944l0.945,0l-0.945,-0.945l1.89,-1.89l2.834,-4.725l-1.889,-5.669Zm0,5.669l-1.89,3.78l-1.89,1.89l-0.945,0.945l-1.89,0l-0.945,-0.945l-1.89,-1.89l-1.889,-3.78l0.944,-4.724l4.725,-1.89l4.725,1.89l0.945,4.724Z" style="fill:#ffd50c;fill-rule:nonzero;"/>
                <path d="M728.023,964.372l-0.945,0l-2.835,-2.835l0,-1.889c1.89,0 3.78,2.834 3.78,4.724Z" style="fill:#ffd50c;fill-rule:nonzero;"/>
            </g>
        </g>
    </g>
    <g id="Second-Floor" serif:id="Second Floor">
        <g id="Floors2" serif:id="Floors">
            <path id="sensor.landing_motion_sensor_2" class="floor" d="M1330.88,577.899l0,413.876l-94.493,0l0,-302.375l-155.912,0l0,-111.501l250.405,0Z"/>
            <rect id="airing_cupboard" class="floor unmonitored" x="1247.73" y="996.5" width="78.429" height="100.162"/>
            <rect id="binary_sensor.office_multisensor_sensor" class="floor" x="923.622" y="689.4" width="312.77" height="407.262"/>
            <rect id="binary_sensor.ensuite" class="floor unmonitored" x="923.622" y="447.499" width="151.188" height="236.231"/>
            <path id="binary_sensor.bedroom" class="floor unmonitored" d="M923.622,70.475l401.592,0l0,501.754l-240.01,0l0,-136.069l-161.582,0l0,-365.685Z"/>
        </g>
        <g id="Walls2" serif:id="Walls">
            <path class="wall" d="M1053.08,64.806l-135.124,0l0,1037.53l172.921,0m89.768,-1037.53l150.243,0l0,1037.53l-88.823,0l0,-8.504l0,8.504l-22.678,0m105.831,-524.432l-10.394,0" />
            <path class="wall" d="M923.622,441.83l156.857,0l0,30.237" />
            <rect id="shower_piping" x="923.622" y="600.577" width="22.678" height="84.098"/>
            <path class="wall" d="M1080.48,560.89l0,128.51l55.75,0l-212.607,0l156.857,0l0,-111.501l144.573,0m0,111.501l17.009,0l0,301.43l83.153,0l-83.153,0l0,13.229" />
            <path id="Stairs3" serif:id="Stairs" d="M1243.01,841.532l83.153,0m-83.153,-22.678l83.153,0m-83.153,-22.678l83.153,0m-83.153,-21.733l83.153,0m-83.153,-22.678l83.153,0m-83.153,-21.734l83.153,0m-83.153,-22.678l83.153,0m-83.153,-22.678l83.153,0" style="fill:none;stroke:#000;stroke-width:0.94px;stroke-linecap:butt;stroke-linejoin:miter;stroke-miterlimit:2;"/>
        </g>
        <g id="Windows2" serif:id="Windows">
            <rect id="bedroom_window" x="1053.08" y="59.136" width="127.565" height="11.339" style="fill:#9fcfde;"/>
            <rect id="office_window" x="1090.87" y="1096.66" width="128.51" height="11.339" style="fill:#9fcfde;"/>
        </g>
        <g id="Doors2" serif:id="Doors">
            <g id="door.bedroom">
                <path id="door_sweep9" serif:id="door_sweep" d="M1303.48,494.746l11.339,0l0,88.822l-89.768,0l0,-11.339c0.945,-51.026 24.568,-77.483 78.429,-77.483Z" style="fill:#b7c7cc;"/>
                <path id="door9" serif:id="door" d="M1309.15,583.568l0,-89.767" style="fill:none;stroke:#52aac7;stroke-width:11.34px;stroke-linecap:butt;stroke-linejoin:miter;stroke-miterlimit:2;"/>
            </g>
            <g id="door.ensuite">
                <path id="door_sweep10" serif:id="door_sweep" d="M1086.15,472.067l-11.34,0l0,88.823l88.823,0l0,-11.339c0,-51.026 -24.568,-76.539 -77.483,-77.484Z" style="fill:#b7c7cc;"/>
                <path id="door10" serif:id="door" d="M1080.48,560.89l0,-88.823" style="fill:none;stroke:#52aac7;stroke-width:11.34px;stroke-linecap:butt;stroke-linejoin:miter;stroke-miterlimit:2;"/>
            </g>
            <g id="door.airing_cupboard">
                <path id="door_sweep11" serif:id="door_sweep" d="M1236.39,1004.06l11.339,0l0,89.768l-89.767,0l0,-11.339c0.945,-51.971 25.513,-77.484 78.428,-78.429Z" style="fill:#b7c7cc;"/>
                <path id="door11" serif:id="door" d="M1242.06,1093.83l0,-89.768" style="fill:none;stroke:#52aac7;stroke-width:11.34px;stroke-linecap:butt;stroke-linejoin:miter;stroke-miterlimit:2;"/>
            </g>
            <g id="door.office">
                <path id="door_sweep12" serif:id="door_sweep" d="M1213.71,773.498l11.339,0l0,-89.768l-88.823,0l0,11.339c0,51.971 24.568,77.484 77.484,78.429Z" style="fill:#b7c7cc;"/>
                <path id="door12" serif:id="door" d="M1219.38,683.73l0,89.768" style="fill:none;stroke:#52aac7;stroke-width:11.34px;stroke-linecap:butt;stroke-linejoin:miter;stroke-miterlimit:2;"/>
            </g>
        </g>
        <g id="Furniture2" serif:id="Furniture">
            <g id="ensuite_shower">
                <path d="M1023.78,607.191c0,-3.779 -2.835,-6.614 -6.615,-6.614l-70.869,0l0,83.153l77.484,0l0,-76.539Z" style="fill:#b7c7cc;"/>
                <path d="M1017.17,600.577l2.835,0l0.945,0.945l0.945,0l0,0.945l0.945,0l0,0.945l0.945,0l0,80.318l-77.484,0l0,-83.153l70.869,0Zm-69.924,0.945l0,81.263l75.594,0l0,-78.428l-0.945,0l0,-0.945l-0.945,0l0,-0.945l-0.945,0l0,-0.945l-72.759,0Z" style="fill:#343a1a;"/>
            </g>
            <path id="ensuite_toilet" d="M953.859,571.284c10.366,0 18.899,-8.53 18.899,-18.898l0,-11.339c0,-10.368 -8.533,-18.899 -18.899,-18.899l-30.237,0l0,49.136l30.237,0Z" style="fill:#b7c7cc;stroke:#343b1a;stroke-width:0.94px;stroke-linecap:butt;stroke-linejoin:miter;stroke-miterlimit:2;"/>
            <path id="ensuite_sink" d="M929.291,502.305c10.368,0 18.899,-8.531 18.899,-18.899l0,-3.779c0,-10.368 -8.531,-18.899 -18.899,-18.899l-5.669,0l0,41.577l5.669,0Z" style="fill:#b7c7cc;stroke:#343b1a;stroke-width:0.94px;stroke-linecap:butt;stroke-linejoin:miter;stroke-miterlimit:2;"/>
            <rect id="bedroom_bed" x="1089.93" y="139.454" width="234.341" height="167.251" style="fill:#b7c7cc;stroke:#343a18;stroke-width:1.89px;stroke-linecap:butt;stroke-linejoin:miter;stroke-miterlimit:2;"/>
            <g id="office_media_unit">
                <rect x="1185.37" y="784.837" width="44.411" height="201.269" style="fill:#b7c7cc;"/>
                <path d="M1229.78,985.161l-44.412,0l0,-200.324l44.412,0l0,200.324Zm-43.467,-199.379l0,198.434l42.522,0l0,-198.434l-42.522,0Z" style="fill:#343a1a;"/>
            </g>
            <rect id="bedroom_wardrobe" x="925.512" y="71.42" width="67.09" height="362.85" style="fill:#b7c7cc;stroke:#343a18;stroke-width:2.83px;stroke-linecap:butt;stroke-linejoin:miter;stroke-miterlimit:2;"/>
            <rect id="bedroom_victoria_bedside_table" x="1279.86" y="308.596" width="45.356" height="44.411" style="fill:#b7c7cc;stroke:#343a18;stroke-width:0.94px;stroke-linecap:butt;stroke-linejoin:miter;stroke-miterlimit:2;"/>
            <rect id="bedroom_chris_bedside_table" x="1279.86" y="92.208" width="45.356" height="44.411" style="fill:#b7c7cc;stroke:#343a18;stroke-width:0.94px;stroke-linecap:butt;stroke-linejoin:miter;stroke-miterlimit:2;"/>
            <g id="office_desk">
                <rect x="924.567" y="1012.56" width="172.921" height="84.098" style="fill:#b7c7cc;"/>
                <path d="M1097.49,1096.66l-172.921,0l0,-84.098l172.921,0l0,84.098Zm-171.976,-83.153l0,82.209l171.031,-0.945l0,-81.264l-171.031,0Z" style="fill:#343a1a;"/>
            </g>
            <path id="remote.office" d="M1212.77,817.909l0,122.84" class="screen"/>
            <path id="office_upright_display" d="M1212.77,944.529l-10.394,37.797" class="screen"/>
            <path id="office_monitor_1" d="M1003,1071.15l72.759,0" class="screen"/>
            <path id="office_monitor_2" d="M934.016,1034.3l63.31,35.907" class="screen"/>
            <g id="smoke_alarm.landing_2">
                <path d="M1169.3,613.806c0,-7.56 -6.615,-13.229 -14.174,-13.229l-27.403,0c-7.559,0 -14.174,5.669 -14.174,13.229l0,28.347c0,7.56 6.615,14.174 14.174,14.174l27.403,0c7.559,0 14.174,-6.614 14.174,-14.174l0,-28.347Z" style="fill:#b7c7cc;"/>
                <g id="binary_sensor.nest_protect_landing_2">
                    <circle cx="1140.95" cy="627.98" r="14.174" style="fill:#c5c5c5;"/>
                    <path d="M1140.95,612.861l2.835,0l0,0.945l2.835,0l0,0.945l1.889,0l0,0.945l0.945,0l0.945,0.945l0.945,0l0,0.944l0.945,0l0,0.945l0.945,0.945l0,0.945l0.945,0l0,1.89l0.945,0l0,10.394l-0.945,0l0,1.89l-0.945,0l0,1.89l-0.945,0l0,0.945l-0.945,0l0,0.945l-0.945,0l0,0.945l-0.945,0l0,0.945l-1.889,0l0,0.945l-1.89,0l0,0.944l-9.45,0l0,-0.944l-1.889,0l0,-0.945l-1.89,0l0,-0.945l-0.945,0l0,-0.945l-0.945,0l0,-0.945l-0.945,0l0,-0.945l-0.945,0l0,-1.89l-0.945,0l0,-1.89l-0.945,0l0,-10.394l0.945,0l0,-1.89l0.945,0l0,-0.945l0.945,-0.945l0,-0.945l0.945,0l0,-0.944l0.945,0l0.945,-0.945l0.945,0l0,-0.945l1.89,0l0,-0.945l2.834,0l0,-0.945l2.835,0Zm0,3.78l-3.78,0l0,0.944l-1.889,0l0,0.945l-0.945,0l-0.945,0.945l-0.945,0l0,0.945l-0.945,0.945l0,0.945l-0.945,0l0,1.89l-0.945,0.945l0,5.669l0.945,0l0,1.89l0.945,0l0,1.89l0.945,0l0,0.945l0.945,0l0,0.945l0.945,0l0,0.945l1.889,0l0,0.945l2.835,0l0,0.945l3.78,0l0,-0.945l2.835,0l0,-0.945l1.89,0l0,-0.945l0.944,0l0,-0.945l0.945,0l0,-0.945l0.945,0l0,-0.945l0.945,-0.945l0,-1.89l0.945,0l0,-6.614l-0.945,0l0,-1.89l-0.945,0l0,-0.945l-0.945,-0.945l0,-0.945l-0.945,0l-0.944,-0.945l-0.945,0l0,-0.945l-1.89,0l0,-0.944l-3.78,0Z" style="fill:#00ff29;"/>
                </g>
            </g>
        </g>
        <g id="Lights2" serif:id="Lights">
            <g id="light.office_desk">
                <circle cx="1088.04" cy="1048.47" r="19.843" class="light-status"/>
                <circle cx="1088.04" cy="1048.47" r="9.449" class="light-button"/>
                <path d="M1091.82,1042.8c0,-1.89 -1.89,-1.89 -3.78,-1.89l-3.779,0.945l-0.945,3.78l1.89,3.779l0.945,0.945l0,3.78l0.944,0l0.945,0.945l1.89,-0.945l0.945,0l-0.945,-0.945l0.945,0l-0.945,-0.945l0.945,0l-0.945,-0.945l0.945,0l0,-0.945l0.945,-0.945l1.89,-3.779l-1.89,-2.835Zm0.945,2.835c0,1.889 -0.945,1.889 -1.89,2.834l-0.945,1.89l-2.835,0l-0.944,-1.89l-1.89,-2.834l0.945,-2.835l2.834,-0.945l3.78,0.945l0.945,2.835Z" style="fill:#ffd50c;fill-rule:nonzero;"/>
                <path d="M1091.82,1045.64l-0.945,0l-1.89,-1.89l0,-0.945c1.89,0 2.835,0.945 2.835,2.835Z" style="fill:#ffd50c;fill-rule:nonzero;"/>
            </g>
            <g id="light.wardrobe">
                <g id="light">
                    <circle cx="992.601" cy="103.547" r="19.843" class="light-status light-off"/>
                    <circle cx="992.601" cy="103.547" r="9.449" class="light-button light-off"/>
                    <path d="M996.381,97.878l-3.78,-1.89l-3.78,1.89l-0.944,3.78l1.889,2.834l0.945,0.945l0,3.78l0.945,0l0.945,0.945l1.89,-0.945l0.945,0l-0.945,-0.945l0.945,-0.945l-0.945,0l0.945,-0.945l-0.945,0l0.945,-0.945l0,-0.945c1.89,-0.945 1.89,-1.89 1.89,-2.834c0.945,-1.89 0,-2.835 -0.945,-3.78Zm0.945,2.835l-1.89,3.779l-0.945,0.945l-0.945,0.945l-1.89,0l0,-0.945l-0.945,-1.89c-1.89,-0.945 -1.89,-1.889 -1.89,-2.834l0.945,-2.835l2.835,-0.945l3.78,0.945l0.945,2.835Z" style="fill:#ffd50c;fill-rule:nonzero;"/>
                    <path d="M996.381,100.713l-0.945,0l-1.89,-1.89l0,-0.945l2.835,2.835Z" style="fill:#ffd50c;fill-rule:nonzero;"/>
                </g>
                <g id="light1" serif:id="light">
                    <circle cx="992.601" cy="153.628" r="19.843" class="light-status light-off"/>
                    <circle cx="992.601" cy="153.628" r="9.449" class="light-button light-off"/>
                    <path d="M996.381,147.014l-3.78,-1.89l-3.78,1.89l-0.944,3.78l1.889,3.779l0.945,0.945l0,3.78l0.945,0l0.945,0.945l1.89,-0.945l0.945,0l-0.945,-0.945l0.945,0l-0.945,-0.945l0.945,0l-0.945,-0.945l0.945,0l-0.945,-0.945l0.945,0l0,-0.945c1.89,-0.945 1.89,-1.89 1.89,-3.779c0.945,-0.945 0,-2.835 -0.945,-3.78Zm0.945,3.78l-1.89,2.834l-0.945,1.89l-2.835,0l-0.945,-1.89c-1.89,-0.945 -1.89,-1.89 -1.89,-2.834l0.945,-2.835l2.835,-1.89l3.78,1.89l0.945,2.835Z" style="fill:#ffd50c;fill-rule:nonzero;"/>
                    <path d="M996.381,149.849l-0.945,0l-1.89,-1.89l0,-0.945l2.835,2.835Z" style="fill:#ffd50c;fill-rule:nonzero;"/>
                </g>
                <g id="light2" serif:id="light">
                    <circle cx="992.601" cy="307.651" r="19.843" class="light-status light-off"/>
                    <circle cx="992.601" cy="307.651" r="9.449" class="light-button light-off"/>
                    <path d="M996.381,301.036l-3.78,-1.89l-3.78,1.89l-0.944,3.78l1.889,3.78l0.945,0.945l0,3.779l0.945,0l0.945,0.945l1.89,-0.945l0.945,0l-0.945,-0.945l0.945,0l-0.945,-0.945l0.945,0l-0.945,-0.944l0.945,0l-0.945,-0.945l0.945,0l0,-0.945c1.89,-0.945 1.89,-1.89 1.89,-3.78c0.945,-0.945 0,-2.835 -0.945,-3.78Zm0.945,3.78l-1.89,2.835l-0.945,1.89l-2.835,0l-0.945,-1.89c-1.89,-0.945 -1.89,-1.89 -1.89,-2.835l0.945,-2.835l2.835,-1.89l3.78,1.89l0.945,2.835Z" style="fill:#ffd50c;fill-rule:nonzero;"/>
                    <path d="M996.381,303.871l-0.945,0l-1.89,-1.89l0,-0.945l2.835,2.835Z" style="fill:#ffd50c;fill-rule:nonzero;"/>
                </g>
                <g id="light3" serif:id="light">
                    <circle cx="992.601" cy="357.732" r="19.843" class="light-status light-off"/>
                    <circle cx="992.601" cy="357.732" r="9.449" class="light-button light-off"/>
                    <path d="M996.381,351.117l-3.78,-0.945l-3.78,0.945l-0.944,3.78l1.889,3.78l0.945,0.945l0,3.779l0.945,0l0.945,0.945l1.89,-0.945l0.945,0l-0.945,-0.945l0.945,0l-0.945,-0.945l0.945,0l-0.945,-0.945l0.945,0l-0.945,-0.944l0.945,0l0,-0.945c1.89,-0.945 1.89,-1.89 1.89,-3.78c0.945,-0.945 0,-1.89 -0.945,-3.78Zm0.945,3.78l-1.89,2.835l-0.945,1.89l-2.835,0l-0.945,-1.89c-1.89,-0.945 -1.89,-1.89 -1.89,-2.835l0.945,-2.835l2.835,-0.945l3.78,0.945l0.945,2.835Z" style="fill:#ffd50c;fill-rule:nonzero;"/>
                    <path d="M996.381,353.952l-0.945,0l-1.89,-1.89l0,-0.945l2.835,2.835Z" style="fill:#ffd50c;fill-rule:nonzero;"/>
                </g>
                <g id="light4" serif:id="light">
                    <circle cx="992.601" cy="407.813" r="19.843" class="light-status light-off"/>
                    <circle cx="992.601" cy="407.813" r="9.449" class="light-button light-off"/>
                    <path d="M996.381,402.143c-0.945,-1.89 -1.89,-1.89 -3.78,-1.89c-0.945,0 -2.835,0 -3.78,1.89l-0.944,2.835l1.889,3.78l0.945,0.944l0,3.78l0.945,0l0.945,0.945l1.89,-0.945l0.945,0l-0.945,-0.945l0.945,0l-0.945,-0.945l0.945,0l-0.945,-0.945l0.945,-0.945l0,-0.944c1.89,-0.945 1.89,-1.89 1.89,-3.78c0.945,-0.945 0,-1.89 -0.945,-2.835Zm0.945,2.835l-1.89,2.835l-0.945,1.889l-2.835,0l-0.945,-1.889c-1.89,-0.945 -1.89,-1.89 -1.89,-2.835l0.945,-2.835l2.835,-0.945l3.78,0.945l0.945,2.835Z" style="fill:#ffd50c;fill-rule:nonzero;"/>
                    <path d="M996.381,404.978l-0.945,0l-1.89,-1.89l0,-0.945c0.945,0 2.835,0.945 2.835,2.835Z" style="fill:#ffd50c;fill-rule:nonzero;"/>
                </g>
            </g>
            <g id="light.bedside_right_portable">
                <circle cx="947.245" cy="1073.04" r="19.843" class="light-status"/>
                <circle cx="947.245" cy="1073.04" r="9.449" class="light-button"/>
                <path d="M951.025,1066.42l-3.78,-1.89l-3.78,1.89c-0.945,0.945 -1.89,2.835 -0.945,3.78c0,1.889 0,2.834 1.89,3.779l0,0.945l0.945,0l-0.945,0.945l0.945,0l-0.945,0.945l0.945,0l-0.945,0.945l0.945,0l-0.945,0.945l0.945,0l1.89,0.945l0.945,-0.945l0.945,0l0,-3.78l0.945,-0.945l1.889,-3.779l-0.944,-3.78Zm0,3.78c0,0.945 0,1.889 -1.89,2.834l-0.945,1.89l-2.835,0l-0.945,-1.89l-0.945,-2.834l0,-2.835l3.78,-1.89l2.835,1.89l0.945,2.835Z" style="fill:#ffd50c;fill-rule:nonzero;"/>
                <path d="M950.08,1069.26l-0.945,0l-1.89,-1.89l0,-0.945c1.89,0 2.835,1.89 2.835,2.835Z" style="fill:#ffd50c;fill-rule:nonzero;"/>
            </g>
            <g id="light.bedroom_ceiling">
                <circle cx="1124.89" cy="237.726" r="28.348" class="light-status"/>
                <circle cx="1124.89" cy="237.726" r="14.174" class="light-button"/>
                <path d="M1130.56,229.222l-5.67,-2.835c-1.889,0 -4.724,0.945 -5.669,2.835l-1.89,4.725c0.945,1.89 0.945,3.779 2.835,4.724l0.945,1.89l0.945,0l-0.945,0.945l0.945,0.945l-0.945,0l0.945,0.945l-0.945,0.945l0.945,0.945l-0.945,0l0.945,0.945l0.945,0l1.889,0.945l1.89,-0.945l0.945,0l0,-5.67l0.945,-0.945l2.835,-5.669c0.945,-1.89 0,-3.78 -0.945,-4.725Zm0,4.725l-1.89,4.724l-1.89,1.89l-3.779,0l-1.89,-2.835c-1.89,-0.944 -1.89,-1.889 -1.89,-3.779c-0.945,-0.945 0,-2.835 0.945,-3.78c0.945,-1.89 2.835,-2.835 4.724,-2.835c1.89,0 2.835,0.945 4.725,2.835l0.945,3.78Z" style="fill:#ffd50c;fill-rule:nonzero;"/>
                <path d="M1129.62,233.002l-1.89,0c0,-0.945 -0.945,-2.835 -2.835,-2.835l0,-0.945c2.835,0 4.725,1.89 4.725,3.78Z" style="fill:#ffd50c;fill-rule:nonzero;"/>
            </g>
            <g id="light.ensuite_ceiling">
                <circle cx="1023.78" cy="533.487" r="28.348" class="light-status"/>
                <circle cx="1023.78" cy="533.487" r="14.174" class="light-button"/>
                <path d="M1029.45,524.983c-0.945,-1.89 -2.835,-2.835 -5.669,-2.835c-1.89,0 -3.78,0.945 -4.725,2.835c-1.89,0.945 -1.89,2.835 -1.89,4.725c0,1.89 0.945,3.779 2.835,4.724l0.945,1.89l0,0.945l0.945,0.945l-0.945,0l0.945,0.945l-0.945,0.945l0.945,0.945l-0.945,0l0.945,0.945l1.89,0.945l2.834,-0.945l0.945,-0.945l-0.945,0l0.945,-0.945l-0.945,-0.945l0.945,-0.945l-0.945,0l0.945,-0.945l0,-0.945l0.945,-0.945l2.835,-5.669c0,-1.89 0,-3.78 -1.89,-4.725Zm0.945,4.725l-2.835,4.724l-0.945,1.89l-4.724,0l-0.945,-2.835l-2.835,-3.779l1.89,-3.78l3.78,-2.835c1.889,0 3.779,0.945 4.724,2.835l1.89,3.78Z" style="fill:#ffd50c;fill-rule:nonzero;"/>
                <path d="M1028.51,528.763l-0.945,0c0,-0.945 -0.945,-2.835 -2.834,-2.835l0,-0.945c2.834,0 3.779,1.89 3.779,3.78Z" style="fill:#ffd50c;fill-rule:nonzero;"/>
            </g>
            <g id="light.office_ceiling">
                <circle cx="1069.14" cy="873.66" r="28.348" class="light-status"/>
                <circle cx="1069.14" cy="873.66" r="14.174" class="light-button"/>
                <path d="M1074.81,865.155l-5.669,-2.834c-2.835,0 -4.725,0.944 -5.67,2.834c-1.889,0.945 -1.889,3.78 -1.889,4.725c0,2.835 0.944,3.78 2.834,5.669l1.89,1.89l-0.945,0l0.945,0.945l-0.945,0.945l0.945,0l-0.945,0.945l0.945,0.945l-0.945,0l0.945,0.945l0.945,0l1.89,1.89l1.89,-1.89l0.945,0l0,-5.67l0.945,-0.945c1.889,-1.889 2.834,-2.834 2.834,-5.669c0.945,-0.945 0,-2.835 -0.945,-4.725Zm0,4.725c0,1.89 -0.944,2.835 -2.834,4.725l-0.945,1.889l-0.945,0.945l-2.835,0l0,-0.945l-1.89,-1.889c-1.89,-1.89 -1.89,-2.835 -1.89,-4.725c-0.945,-0.945 0,-2.835 0.945,-3.78c0.945,-1.89 2.835,-1.89 4.725,-1.89c1.89,0 2.835,0 4.725,1.89l0.944,3.78Z" style="fill:#ffd50c;fill-rule:nonzero;"/>
                <path d="M1073.87,868.935l-1.89,0c0,-0.945 -0.945,-2.835 -2.835,-2.835l0,-0.945c2.835,0 4.725,2.835 4.725,3.78Z" style="fill:#ffd50c;fill-rule:nonzero;"/>
            </g>
            <g id="light.upstairs_ceiling">
                <circle cx="1269.46" cy="627.98" r="28.348" class="light-status"/>
                <circle cx="1269.46" cy="627.98" r="14.174" class="light-button"/>
                <path d="M1275.13,619.475c-0.945,-1.89 -2.835,-2.834 -5.669,-2.834l-5.67,2.834l-0.945,5.67c0,1.89 0.945,2.835 2.835,4.724l0.945,0.945l0,0.945l0.945,0.945l-0.945,0.945l0.945,0.945l-0.945,0l0.945,0.945l-0.945,0.945l0.945,0l1.89,1.89l1.889,-1.89l1.89,0l-0.945,-0.945l0.945,-0.945l-0.945,0l0.945,-0.945l-0.945,-0.945l0.945,-0.945l0.945,-1.89c1.89,-1.889 2.835,-2.834 2.835,-4.724c0,-1.89 0,-3.78 -1.89,-5.67Zm0.945,4.725c-0.945,1.89 -0.945,3.78 -2.835,4.725l-1.89,1.889l0,0.945l-2.834,0l-0.945,-0.945l-0.945,-1.889c-1.89,-1.89 -2.835,-2.835 -2.835,-4.725l0.945,-3.78l4.725,-1.89l4.724,1.89l1.89,3.78Z" style="fill:#ffd50c;fill-rule:nonzero;"/>
                <path d="M1274.19,623.255l-0.945,0c0,-0.945 -0.945,-1.89 -2.834,-1.89l0,-1.89c2.834,0 3.779,2.835 3.779,3.78Z" style="fill:#ffd50c;fill-rule:nonzero;"/>
            </g>
        </g>
    </g>
    <defs>
        <linearGradient id="_Linear1" x1="0" y1="0" x2="1" y2="0" gradientUnits="userSpaceOnUse" gradientTransform="matrix(1.53121,182.214,-182.214,1.53121,1813.87,237.786)"><stop offset="0" style="stop-color:#e3ab68;stop-opacity:1"/><stop offset="0.1" style="stop-color:#eecca4;stop-opacity:1"/><stop offset="0.21" style="stop-color:#faefe2;stop-opacity:1"/><stop offset="0.5" style="stop-color:#fff;stop-opacity:1"/><stop offset="0.79" style="stop-color:#deeff4;stop-opacity:1"/><stop offset="0.9" style="stop-color:#97ccdd;stop-opacity:1"/><stop offset="1" style="stop-color:#52aac7;stop-opacity:1"/></linearGradient>
    </defs>
</svg>
